P1
230 70
0 0 0 0 0 0 0 0 0 0  0 0 0 0 0 0 0 0 0 0  0 0 0 0 0 0 0 0 0 0  0 0 0 0 0 0 0 0 0 0  0 0 0 0 0 0 0 0 0 0  0 0 0 0 0 0 0 0 0 0  0 0 0 0 0 0 0 0 0 0  0 0 0 0 0 0 0 0 0 0  0 0 0 0 0 0 0 0 0 0  0 0 0 0 0 0 0 0 0 0  0 0 0 0 0 0 0 0 0 0  0 0 0 0 0 0 0 0 0 0  0 0 0 0 0 0 0 0 0 0  0 0 0 0 0 0 0 0 0 0  0 0 0 0 0 0 0 0 0 0  0 0 0 0 0 0 0 0 0 0  0 0 0 0 0 0 0 0 0 0  0 0 0 0 0 0 0 0 0 0  0 0 0 0 0 0 0 0 0 0  0 0 0 0 0 0 0 0 0 0  0 0 0 0 0 0 0 0 0 0  0 0 0 0 0 0 0 0 0 0  0 0 0 0 0 0 0 0 0 0 
0 0 0 0 0 0 0 0 0 0  0 0 0 0 0 0 0 0 0 0  0 0 0 0 0 0 0 0 0 0  0 0 0 0 0 0 0 0 0 0  0 0 0 0 0 0 0 0 0 0  0 0 0 0 0 0 0 0 0 0  0 0 0 0 0 0 0 0 0 0  0 0 0 0 0 0 0 0 0 0  0 0 0 0 0 0 0 0 0 0  0 0 0 0 0 0 0 0 0 0  0 0 0 0 0 0 0 0 0 0  0 0 0 0 0 0 0 0 0 0  0 0 0 0 0 0 0 0 0 0  0 0 0 0 0 0 0 0 0 0  0 0 0 0 0 0 0 0 0 0  0 0 0 0 0 0 0 0 0 0  0 0 0 0 0 0 0 0 0 0  0 0 0 0 0 0 0 0 0 0  0 0 0 0 0 0 0 0 0 0  0 0 0 0 0 0 0 0 0 0  0 0 0 0 0 0 0 0 0 0  0 0 0 0 0 0 0 0 0 0  0 0 0 0 0 0 0 0 0 0 
0 0 0 0 0 0 0 0 0 0  0 0 0 0 0 0 0 0 0 0  0 0 0 0 0 0 0 0 0 0  0 0 0 0 0 0 0 0 0 0  0 0 0 0 0 0 0 0 0 0  0 0 0 0 0 0 0 0 0 0  0 0 0 0 0 0 0 0 0 0  0 0 0 0 0 0 0 0 0 0  0 0 0 0 0 0 0 0 0 0  0 0 0 0 0 0 0 0 0 0  0 0 0 0 0 0 0 0 0 0  0 0 0 0 0 0 0 0 0 0  0 0 0 0 0 0 0 0 0 0  0 0 0 0 0 0 0 0 0 0  0 0 0 0 0 0 0 0 0 0  0 0 0 0 0 0 0 0 0 0  0 0 0 0 0 0 0 0 0 0  0 0 0 0 0 0 0 0 0 0  0 0 0 0 0 0 0 0 0 0  0 0 0 0 0 0 0 0 0 0  0 0 0 0 0 0 0 0 0 0  0 0 0 0 0 0 0 0 0 0  0 0 0 0 0 0 0 0 0 0 
0 0 0 0 0 0 0 0 0 0  0 0 0 0 0 0 0 0 0 0  0 0 0 0 0 0 0 0 0 0  0 0 0 0 0 0 0 0 0 0  0 0 0 0 0 0 0 0 0 0  0 0 0 0 0 0 0 0 0 0  0 0 0 0 0 0 0 0 0 0  0 0 0 0 0 0 0 0 0 0  0 0 0 0 0 0 0 0 0 0  0 0 0 0 0 0 0 0 0 0  0 0 0 0 0 0 0 0 0 0  0 0 0 0 0 0 0 0 0 0  0 0 0 0 0 0 0 0 0 0  0 0 0 0 0 0 0 0 0 0  0 0 0 0 0 0 0 0 0 0  0 0 0 0 0 0 0 0 0 0  0 0 0 0 0 0 0 0 0 0  0 0 0 0 0 0 0 0 0 0  0 0 0 0 0 0 0 0 0 0  0 0 0 0 0 0 0 0 0 0  0 0 0 0 0 0 0 0 0 0  0 0 0 0 0 0 0 0 0 0  0 0 0 0 0 0 0 0 0 0 
0 0 0 0 0 0 0 0 0 0  0 0 0 0 0 0 0 0 0 0  0 0 0 0 0 0 0 0 0 0  0 0 0 0 0 0 0 0 0 0  0 0 0 0 0 0 0 0 0 0  0 0 0 0 0 0 0 0 0 0  0 0 0 0 0 0 0 0 0 0  0 0 0 0 0 0 0 0 0 0  0 0 0 0 0 0 0 0 0 0  0 0 0 0 0 0 0 0 0 0  0 0 0 0 0 0 0 0 0 0  0 0 0 0 0 0 0 0 0 0  0 0 0 0 0 0 0 0 0 0  0 0 0 0 0 0 0 0 0 0  0 0 0 0 0 0 0 0 0 0  0 0 0 0 0 0 0 0 0 0  0 0 0 0 0 0 0 0 0 0  0 0 0 0 0 0 0 0 0 0  0 0 0 0 0 0 0 0 0 0  0 0 0 0 0 0 0 0 0 0  0 0 0 0 0 0 0 0 0 0  0 0 0 0 0 0 0 0 0 0  0 0 0 0 0 0 0 0 0 0 
0 0 0 0 0 0 0 0 0 0  0 0 0 0 0 0 0 0 0 0  0 0 0 0 0 0 0 0 0 0  0 0 0 0 0 0 0 0 0 0  0 0 0 0 0 0 0 0 0 0  0 0 0 0 0 0 0 0 0 0  0 0 0 0 0 0 0 0 0 0  0 0 0 0 0 0 0 0 0 0  0 0 0 0 0 0 0 0 0 0  0 0 0 0 0 0 0 0 0 0  0 0 0 0 0 0 0 0 0 0  0 0 0 0 0 0 0 0 0 0  0 0 0 0 0 0 0 0 0 0  0 0 0 0 0 0 0 0 0 0  0 0 0 0 0 0 0 0 0 0  0 0 0 0 0 0 0 0 0 0  0 0 0 0 0 0 0 0 0 0  0 0 0 0 0 0 0 0 0 0  0 0 0 0 0 0 0 0 0 0  0 0 0 0 0 0 0 0 0 0  0 0 0 0 0 0 0 0 0 0  0 0 0 0 0 0 0 0 0 0  0 0 0 0 0 0 0 0 0 0 
0 0 0 0 0 0 0 0 0 0  0 0 0 0 0 0 0 0 0 0  0 0 0 0 0 0 0 0 0 0  0 0 0 0 0 0 0 0 0 0  0 0 0 0 0 0 0 0 0 0  0 0 0 0 0 0 0 0 0 0  0 0 0 0 0 0 0 0 0 0  0 0 0 0 0 0 0 0 0 0  0 0 0 0 0 0 0 0 0 0  0 0 0 0 0 0 0 0 0 0  0 0 0 0 0 0 0 0 0 0  0 0 0 0 0 0 0 0 0 0  0 0 0 0 0 0 0 0 0 0  0 0 0 0 0 0 0 0 0 0  0 0 0 0 0 0 0 0 0 0  0 0 0 0 0 0 0 0 0 0  0 0 0 0 0 0 0 0 0 0  0 0 0 0 0 0 0 0 0 0  0 0 0 0 0 0 0 0 0 0  0 0 0 0 0 0 0 0 0 0  0 0 0 0 0 0 0 0 0 0  0 0 0 0 0 0 0 0 0 0  0 0 0 0 0 0 0 0 0 0 
0 0 0 0 0 0 0 0 0 0  0 0 0 0 0 0 0 0 0 0  0 0 0 0 0 0 0 0 0 0  0 0 0 0 0 0 0 0 0 0  0 0 0 0 0 0 0 0 0 0  0 0 0 0 0 0 0 0 0 0  0 0 0 0 0 0 0 0 0 0  0 0 0 0 0 0 0 0 0 0  0 0 0 0 0 0 0 0 0 0  0 0 0 0 0 0 0 0 0 0  0 0 0 0 0 0 0 0 0 0  0 0 0 0 0 0 0 0 0 0  0 0 0 0 0 0 0 0 0 0  0 0 0 0 0 0 0 0 0 0  0 0 0 0 0 0 0 0 0 0  0 0 0 0 0 0 0 0 0 0  0 0 0 0 0 0 0 0 0 0  0 0 0 0 0 0 0 0 0 0  0 0 0 0 0 0 0 0 0 0  0 0 0 0 0 0 0 0 0 0  0 0 0 0 0 0 0 0 0 0  0 0 0 0 0 0 0 0 0 0  0 0 0 0 0 0 0 0 0 0 
0 0 0 0 0 0 0 0 0 0  0 0 0 0 0 0 0 0 0 0  0 0 0 0 0 0 0 0 0 0  0 0 0 0 0 0 0 0 0 0  0 0 0 0 0 0 0 0 0 0  0 0 0 0 0 0 0 0 0 0  0 0 0 0 0 0 0 0 0 0  0 0 0 0 0 0 0 0 0 0  0 0 0 0 0 0 0 0 0 0  0 0 0 0 0 0 0 0 0 0  0 0 0 0 0 0 0 0 0 0  0 0 0 0 0 0 0 0 0 0  0 0 0 0 0 0 0 0 0 0  0 0 0 0 0 0 0 0 0 0  0 0 0 0 0 0 0 0 0 0  0 0 0 0 0 0 0 0 0 0  0 0 0 0 0 0 0 0 0 0  0 0 0 0 0 0 0 0 0 0  0 0 0 0 0 0 0 0 0 0  0 0 0 0 0 0 0 0 0 0  0 0 0 0 0 0 0 0 0 0  0 0 0 0 0 0 0 0 0 0  0 0 0 0 0 0 0 0 0 0 
0 0 0 0 0 0 0 0 0 0  0 0 0 0 0 0 0 0 0 0  0 0 0 0 0 0 0 0 0 0  0 0 0 0 0 0 0 0 0 0  0 0 0 0 0 0 0 0 0 0  0 0 0 0 0 0 0 0 0 0  0 0 0 0 0 0 0 0 0 0  0 0 0 0 0 0 0 0 0 0  0 0 0 0 0 0 0 0 0 0  0 0 0 0 0 0 0 0 0 0  0 0 0 0 0 0 0 0 0 0  0 0 0 0 0 0 0 0 0 0  0 0 0 0 0 0 0 0 0 0  0 0 0 0 0 0 0 0 0 0  0 0 0 0 0 0 0 0 0 0  0 0 0 0 0 0 0 0 0 0  0 0 0 0 0 0 0 0 0 0  0 0 0 0 0 0 0 0 0 0  0 0 0 0 0 0 0 0 0 0  0 0 0 0 0 0 0 0 0 0  0 0 0 0 0 0 0 0 0 0  0 0 0 0 0 0 0 0 0 0  0 0 0 0 0 0 0 0 0 0 
0 0 0 0 0 0 0 0 0 0  1 1 1 1 1 1 1 1 1 1  1 1 1 1 1 1 1 1 1 1  1 1 1 1 1 1 1 1 1 1  1 1 1 1 1 1 1 1 1 1  0 0 0 0 0 0 0 0 0 0  0 0 0 0 0 0 0 0 0 0  1 1 1 1 1 1 1 1 1 1  1 1 1 1 1 1 1 1 1 1  1 1 1 1 1 1 1 1 1 1  1 1 1 1 1 1 1 1 1 1  0 0 0 0 0 0 0 0 0 0  1 1 1 1 1 1 1 1 1 1  0 0 0 0 0 0 0 0 0 0  0 0 0 0 0 0 0 0 0 0  0 0 0 0 0 0 0 0 0 0  1 1 1 1 1 1 1 1 1 1  0 0 0 0 0 0 0 0 0 0  1 1 1 1 1 1 1 1 1 1  1 1 1 1 1 1 1 1 1 1  1 1 1 1 1 1 1 1 1 1  1 1 1 1 1 1 1 1 1 1  0 0 0 0 0 0 0 0 0 0 
0 0 0 0 0 0 0 0 0 0  1 1 1 1 1 1 1 1 1 1  1 1 1 1 1 1 1 1 1 1  1 1 1 1 1 1 1 1 1 1  1 1 1 1 1 1 1 1 1 1  0 0 0 0 0 0 0 0 0 0  0 0 0 0 0 0 0 0 0 0  1 1 1 1 1 1 1 1 1 1  1 1 1 1 1 1 1 1 1 1  1 1 1 1 1 1 1 1 1 1  1 1 1 1 1 1 1 1 1 1  0 0 0 0 0 0 0 0 0 0  1 1 1 1 1 1 1 1 1 1  0 0 0 0 0 0 0 0 0 0  0 0 0 0 0 0 0 0 0 0  0 0 0 0 0 0 0 0 0 0  1 1 1 1 1 1 1 1 1 1  0 0 0 0 0 0 0 0 0 0  1 1 1 1 1 1 1 1 1 1  1 1 1 1 1 1 1 1 1 1  1 1 1 1 1 1 1 1 1 1  1 1 1 1 1 1 1 1 1 1  0 0 0 0 0 0 0 0 0 0 
0 0 0 0 0 0 0 0 0 0  1 1 1 1 1 1 1 1 1 1  1 1 1 1 1 1 1 1 1 1  1 1 1 1 1 1 1 1 1 1  1 1 1 1 1 1 1 1 1 1  0 0 0 0 0 0 0 0 0 0  0 0 0 0 0 0 0 0 0 0  1 1 1 1 1 1 1 1 1 1  1 1 1 1 1 1 1 1 1 1  1 1 1 1 1 1 1 1 1 1  1 1 1 1 1 1 1 1 1 1  0 0 0 0 0 0 0 0 0 0  1 1 1 1 1 1 1 1 1 1  0 0 0 0 0 0 0 0 0 0  0 0 0 0 0 0 0 0 0 0  0 0 0 0 0 0 0 0 0 0  1 1 1 1 1 1 1 1 1 1  0 0 0 0 0 0 0 0 0 0  1 1 1 1 1 1 1 1 1 1  1 1 1 1 1 1 1 1 1 1  1 1 1 1 1 1 1 1 1 1  1 1 1 1 1 1 1 1 1 1  0 0 0 0 0 0 0 0 0 0 
0 0 0 0 0 0 0 0 0 0  1 1 1 1 1 1 1 1 1 1  1 1 1 1 1 1 1 1 1 1  1 1 1 1 1 1 1 1 1 1  1 1 1 1 1 1 1 1 1 1  0 0 0 0 0 0 0 0 0 0  0 0 0 0 0 0 0 0 0 0  1 1 1 1 1 1 1 1 1 1  1 1 1 1 1 1 1 1 1 1  1 1 1 1 1 1 1 1 1 1  1 1 1 1 1 1 1 1 1 1  0 0 0 0 0 0 0 0 0 0  1 1 1 1 1 1 1 1 1 1  0 0 0 0 0 0 0 0 0 0  0 0 0 0 0 0 0 0 0 0  0 0 0 0 0 0 0 0 0 0  1 1 1 1 1 1 1 1 1 1  0 0 0 0 0 0 0 0 0 0  1 1 1 1 1 1 1 1 1 1  1 1 1 1 1 1 1 1 1 1  1 1 1 1 1 1 1 1 1 1  1 1 1 1 1 1 1 1 1 1  0 0 0 0 0 0 0 0 0 0 
0 0 0 0 0 0 0 0 0 0  1 1 1 1 1 1 1 1 1 1  1 1 1 1 1 1 1 1 1 1  1 1 1 1 1 1 1 1 1 1  1 1 1 1 1 1 1 1 1 1  0 0 0 0 0 0 0 0 0 0  0 0 0 0 0 0 0 0 0 0  1 1 1 1 1 1 1 1 1 1  1 1 1 1 1 1 1 1 1 1  1 1 1 1 1 1 1 1 1 1  1 1 1 1 1 1 1 1 1 1  0 0 0 0 0 0 0 0 0 0  1 1 1 1 1 1 1 1 1 1  0 0 0 0 0 0 0 0 0 0  0 0 0 0 0 0 0 0 0 0  0 0 0 0 0 0 0 0 0 0  1 1 1 1 1 1 1 1 1 1  0 0 0 0 0 0 0 0 0 0  1 1 1 1 1 1 1 1 1 1  1 1 1 1 1 1 1 1 1 1  1 1 1 1 1 1 1 1 1 1  1 1 1 1 1 1 1 1 1 1  0 0 0 0 0 0 0 0 0 0 
0 0 0 0 0 0 0 0 0 0  1 1 1 1 1 1 1 1 1 1  1 1 1 1 1 1 1 1 1 1  1 1 1 1 1 1 1 1 1 1  1 1 1 1 1 1 1 1 1 1  0 0 0 0 0 0 0 0 0 0  0 0 0 0 0 0 0 0 0 0  1 1 1 1 1 1 1 1 1 1  1 1 1 1 1 1 1 1 1 1  1 1 1 1 1 1 1 1 1 1  1 1 1 1 1 1 1 1 1 1  0 0 0 0 0 0 0 0 0 0  1 1 1 1 1 1 1 1 1 1  0 0 0 0 0 0 0 0 0 0  0 0 0 0 0 0 0 0 0 0  0 0 0 0 0 0 0 0 0 0  1 1 1 1 1 1 1 1 1 1  0 0 0 0 0 0 0 0 0 0  1 1 1 1 1 1 1 1 1 1  1 1 1 1 1 1 1 1 1 1  1 1 1 1 1 1 1 1 1 1  1 1 1 1 1 1 1 1 1 1  0 0 0 0 0 0 0 0 0 0 
0 0 0 0 0 0 0 0 0 0  1 1 1 1 1 1 1 1 1 1  1 1 1 1 1 1 1 1 1 1  1 1 1 1 1 1 1 1 1 1  1 1 1 1 1 1 1 1 1 1  0 0 0 0 0 0 0 0 0 0  0 0 0 0 0 0 0 0 0 0  1 1 1 1 1 1 1 1 1 1  1 1 1 1 1 1 1 1 1 1  1 1 1 1 1 1 1 1 1 1  1 1 1 1 1 1 1 1 1 1  0 0 0 0 0 0 0 0 0 0  1 1 1 1 1 1 1 1 1 1  0 0 0 0 0 0 0 0 0 0  0 0 0 0 0 0 0 0 0 0  0 0 0 0 0 0 0 0 0 0  1 1 1 1 1 1 1 1 1 1  0 0 0 0 0 0 0 0 0 0  1 1 1 1 1 1 1 1 1 1  1 1 1 1 1 1 1 1 1 1  1 1 1 1 1 1 1 1 1 1  1 1 1 1 1 1 1 1 1 1  0 0 0 0 0 0 0 0 0 0 
0 0 0 0 0 0 0 0 0 0  1 1 1 1 1 1 1 1 1 1  1 1 1 1 1 1 1 1 1 1  1 1 1 1 1 1 1 1 1 1  1 1 1 1 1 1 1 1 1 1  0 0 0 0 0 0 0 0 0 0  0 0 0 0 0 0 0 0 0 0  1 1 1 1 1 1 1 1 1 1  1 1 1 1 1 1 1 1 1 1  1 1 1 1 1 1 1 1 1 1  1 1 1 1 1 1 1 1 1 1  0 0 0 0 0 0 0 0 0 0  1 1 1 1 1 1 1 1 1 1  0 0 0 0 0 0 0 0 0 0  0 0 0 0 0 0 0 0 0 0  0 0 0 0 0 0 0 0 0 0  1 1 1 1 1 1 1 1 1 1  0 0 0 0 0 0 0 0 0 0  1 1 1 1 1 1 1 1 1 1  1 1 1 1 1 1 1 1 1 1  1 1 1 1 1 1 1 1 1 1  1 1 1 1 1 1 1 1 1 1  0 0 0 0 0 0 0 0 0 0 
0 0 0 0 0 0 0 0 0 0  1 1 1 1 1 1 1 1 1 1  1 1 1 1 1 1 1 1 1 1  1 1 1 1 1 1 1 1 1 1  1 1 1 1 1 1 1 1 1 1  0 0 0 0 0 0 0 0 0 0  0 0 0 0 0 0 0 0 0 0  1 1 1 1 1 1 1 1 1 1  1 1 1 1 1 1 1 1 1 1  1 1 1 1 1 1 1 1 1 1  1 1 1 1 1 1 1 1 1 1  0 0 0 0 0 0 0 0 0 0  1 1 1 1 1 1 1 1 1 1  0 0 0 0 0 0 0 0 0 0  0 0 0 0 0 0 0 0 0 0  0 0 0 0 0 0 0 0 0 0  1 1 1 1 1 1 1 1 1 1  0 0 0 0 0 0 0 0 0 0  1 1 1 1 1 1 1 1 1 1  1 1 1 1 1 1 1 1 1 1  1 1 1 1 1 1 1 1 1 1  1 1 1 1 1 1 1 1 1 1  0 0 0 0 0 0 0 0 0 0 
0 0 0 0 0 0 0 0 0 0  1 1 1 1 1 1 1 1 1 1  1 1 1 1 1 1 1 1 1 1  1 1 1 1 1 1 1 1 1 1  1 1 1 1 1 1 1 1 1 1  0 0 0 0 0 0 0 0 0 0  0 0 0 0 0 0 0 0 0 0  1 1 1 1 1 1 1 1 1 1  1 1 1 1 1 1 1 1 1 1  1 1 1 1 1 1 1 1 1 1  1 1 1 1 1 1 1 1 1 1  0 0 0 0 0 0 0 0 0 0  1 1 1 1 1 1 1 1 1 1  0 0 0 0 0 0 0 0 0 0  0 0 0 0 0 0 0 0 0 0  0 0 0 0 0 0 0 0 0 0  1 1 1 1 1 1 1 1 1 1  0 0 0 0 0 0 0 0 0 0  1 1 1 1 1 1 1 1 1 1  1 1 1 1 1 1 1 1 1 1  1 1 1 1 1 1 1 1 1 1  1 1 1 1 1 1 1 1 1 1  0 0 0 0 0 0 0 0 0 0 
0 0 0 0 0 0 0 0 0 0  1 1 1 1 1 1 1 1 1 1  0 0 0 0 0 0 0 0 0 0  0 0 0 0 0 0 0 0 0 0  0 0 0 0 0 0 0 0 0 0  1 1 1 1 1 1 1 1 1 1  0 0 0 0 0 0 0 0 0 0  1 1 1 1 1 1 1 1 1 1  0 0 0 0 0 0 0 0 0 0  0 0 0 0 0 0 0 0 0 0  0 0 0 0 0 0 0 0 0 0  0 0 0 0 0 0 0 0 0 0  1 1 1 1 1 1 1 1 1 1  1 1 1 1 1 1 1 1 1 1  0 0 0 0 0 0 0 0 0 0  0 0 0 0 0 0 0 0 0 0  1 1 1 1 1 1 1 1 1 1  0 0 0 0 0 0 0 0 0 0  1 1 1 1 1 1 1 1 1 1  0 0 0 0 0 0 0 0 0 0  0 0 0 0 0 0 0 0 0 0  0 0 0 0 0 0 0 0 0 0  0 0 0 0 0 0 0 0 0 0 
0 0 0 0 0 0 0 0 0 0  1 1 1 1 1 1 1 1 1 1  0 0 0 0 0 0 0 0 0 0  0 0 0 0 0 0 0 0 0 0  0 0 0 0 0 0 0 0 0 0  1 1 1 1 1 1 1 1 1 1  0 0 0 0 0 0 0 0 0 0  1 1 1 1 1 1 1 1 1 1  0 0 0 0 0 0 0 0 0 0  0 0 0 0 0 0 0 0 0 0  0 0 0 0 0 0 0 0 0 0  0 0 0 0 0 0 0 0 0 0  1 1 1 1 1 1 1 1 1 1  1 1 1 1 1 1 1 1 1 1  0 0 0 0 0 0 0 0 0 0  0 0 0 0 0 0 0 0 0 0  1 1 1 1 1 1 1 1 1 1  0 0 0 0 0 0 0 0 0 0  1 1 1 1 1 1 1 1 1 1  0 0 0 0 0 0 0 0 0 0  0 0 0 0 0 0 0 0 0 0  0 0 0 0 0 0 0 0 0 0  0 0 0 0 0 0 0 0 0 0 
0 0 0 0 0 0 0 0 0 0  1 1 1 1 1 1 1 1 1 1  0 0 0 0 0 0 0 0 0 0  0 0 0 0 0 0 0 0 0 0  0 0 0 0 0 0 0 0 0 0  1 1 1 1 1 1 1 1 1 1  0 0 0 0 0 0 0 0 0 0  1 1 1 1 1 1 1 1 1 1  0 0 0 0 0 0 0 0 0 0  0 0 0 0 0 0 0 0 0 0  0 0 0 0 0 0 0 0 0 0  0 0 0 0 0 0 0 0 0 0  1 1 1 1 1 1 1 1 1 1  1 1 1 1 1 1 1 1 1 1  0 0 0 0 0 0 0 0 0 0  0 0 0 0 0 0 0 0 0 0  1 1 1 1 1 1 1 1 1 1  0 0 0 0 0 0 0 0 0 0  1 1 1 1 1 1 1 1 1 1  0 0 0 0 0 0 0 0 0 0  0 0 0 0 0 0 0 0 0 0  0 0 0 0 0 0 0 0 0 0  0 0 0 0 0 0 0 0 0 0 
0 0 0 0 0 0 0 0 0 0  1 1 1 1 1 1 1 1 1 1  0 0 0 0 0 0 0 0 0 0  0 0 0 0 0 0 0 0 0 0  0 0 0 0 0 0 0 0 0 0  1 1 1 1 1 1 1 1 1 1  0 0 0 0 0 0 0 0 0 0  1 1 1 1 1 1 1 1 1 1  0 0 0 0 0 0 0 0 0 0  0 0 0 0 0 0 0 0 0 0  0 0 0 0 0 0 0 0 0 0  0 0 0 0 0 0 0 0 0 0  1 1 1 1 1 1 1 1 1 1  1 1 1 1 1 1 1 1 1 1  0 0 0 0 0 0 0 0 0 0  0 0 0 0 0 0 0 0 0 0  1 1 1 1 1 1 1 1 1 1  0 0 0 0 0 0 0 0 0 0  1 1 1 1 1 1 1 1 1 1  0 0 0 0 0 0 0 0 0 0  0 0 0 0 0 0 0 0 0 0  0 0 0 0 0 0 0 0 0 0  0 0 0 0 0 0 0 0 0 0 
0 0 0 0 0 0 0 0 0 0  1 1 1 1 1 1 1 1 1 1  0 0 0 0 0 0 0 0 0 0  0 0 0 0 0 0 0 0 0 0  0 0 0 0 0 0 0 0 0 0  1 1 1 1 1 1 1 1 1 1  0 0 0 0 0 0 0 0 0 0  1 1 1 1 1 1 1 1 1 1  0 0 0 0 0 0 0 0 0 0  0 0 0 0 0 0 0 0 0 0  0 0 0 0 0 0 0 0 0 0  0 0 0 0 0 0 0 0 0 0  1 1 1 1 1 1 1 1 1 1  1 1 1 1 1 1 1 1 1 1  0 0 0 0 0 0 0 0 0 0  0 0 0 0 0 0 0 0 0 0  1 1 1 1 1 1 1 1 1 1  0 0 0 0 0 0 0 0 0 0  1 1 1 1 1 1 1 1 1 1  0 0 0 0 0 0 0 0 0 0  0 0 0 0 0 0 0 0 0 0  0 0 0 0 0 0 0 0 0 0  0 0 0 0 0 0 0 0 0 0 
0 0 0 0 0 0 0 0 0 0  1 1 1 1 1 1 1 1 1 1  0 0 0 0 0 0 0 0 0 0  0 0 0 0 0 0 0 0 0 0  0 0 0 0 0 0 0 0 0 0  1 1 1 1 1 1 1 1 1 1  0 0 0 0 0 0 0 0 0 0  1 1 1 1 1 1 1 1 1 1  0 0 0 0 0 0 0 0 0 0  0 0 0 0 0 0 0 0 0 0  0 0 0 0 0 0 0 0 0 0  0 0 0 0 0 0 0 0 0 0  1 1 1 1 1 1 1 1 1 1  1 1 1 1 1 1 1 1 1 1  0 0 0 0 0 0 0 0 0 0  0 0 0 0 0 0 0 0 0 0  1 1 1 1 1 1 1 1 1 1  0 0 0 0 0 0 0 0 0 0  1 1 1 1 1 1 1 1 1 1  0 0 0 0 0 0 0 0 0 0  0 0 0 0 0 0 0 0 0 0  0 0 0 0 0 0 0 0 0 0  0 0 0 0 0 0 0 0 0 0 
0 0 0 0 0 0 0 0 0 0  1 1 1 1 1 1 1 1 1 1  0 0 0 0 0 0 0 0 0 0  0 0 0 0 0 0 0 0 0 0  0 0 0 0 0 0 0 0 0 0  1 1 1 1 1 1 1 1 1 1  0 0 0 0 0 0 0 0 0 0  1 1 1 1 1 1 1 1 1 1  0 0 0 0 0 0 0 0 0 0  0 0 0 0 0 0 0 0 0 0  0 0 0 0 0 0 0 0 0 0  0 0 0 0 0 0 0 0 0 0  1 1 1 1 1 1 1 1 1 1  1 1 1 1 1 1 1 1 1 1  0 0 0 0 0 0 0 0 0 0  0 0 0 0 0 0 0 0 0 0  1 1 1 1 1 1 1 1 1 1  0 0 0 0 0 0 0 0 0 0  1 1 1 1 1 1 1 1 1 1  0 0 0 0 0 0 0 0 0 0  0 0 0 0 0 0 0 0 0 0  0 0 0 0 0 0 0 0 0 0  0 0 0 0 0 0 0 0 0 0 
0 0 0 0 0 0 0 0 0 0  1 1 1 1 1 1 1 1 1 1  0 0 0 0 0 0 0 0 0 0  0 0 0 0 0 0 0 0 0 0  0 0 0 0 0 0 0 0 0 0  1 1 1 1 1 1 1 1 1 1  0 0 0 0 0 0 0 0 0 0  1 1 1 1 1 1 1 1 1 1  0 0 0 0 0 0 0 0 0 0  0 0 0 0 0 0 0 0 0 0  0 0 0 0 0 0 0 0 0 0  0 0 0 0 0 0 0 0 0 0  1 1 1 1 1 1 1 1 1 1  1 1 1 1 1 1 1 1 1 1  0 0 0 0 0 0 0 0 0 0  0 0 0 0 0 0 0 0 0 0  1 1 1 1 1 1 1 1 1 1  0 0 0 0 0 0 0 0 0 0  1 1 1 1 1 1 1 1 1 1  0 0 0 0 0 0 0 0 0 0  0 0 0 0 0 0 0 0 0 0  0 0 0 0 0 0 0 0 0 0  0 0 0 0 0 0 0 0 0 0 
0 0 0 0 0 0 0 0 0 0  1 1 1 1 1 1 1 1 1 1  0 0 0 0 0 0 0 0 0 0  0 0 0 0 0 0 0 0 0 0  0 0 0 0 0 0 0 0 0 0  1 1 1 1 1 1 1 1 1 1  0 0 0 0 0 0 0 0 0 0  1 1 1 1 1 1 1 1 1 1  0 0 0 0 0 0 0 0 0 0  0 0 0 0 0 0 0 0 0 0  0 0 0 0 0 0 0 0 0 0  0 0 0 0 0 0 0 0 0 0  1 1 1 1 1 1 1 1 1 1  1 1 1 1 1 1 1 1 1 1  0 0 0 0 0 0 0 0 0 0  0 0 0 0 0 0 0 0 0 0  1 1 1 1 1 1 1 1 1 1  0 0 0 0 0 0 0 0 0 0  1 1 1 1 1 1 1 1 1 1  0 0 0 0 0 0 0 0 0 0  0 0 0 0 0 0 0 0 0 0  0 0 0 0 0 0 0 0 0 0  0 0 0 0 0 0 0 0 0 0 
0 0 0 0 0 0 0 0 0 0  1 1 1 1 1 1 1 1 1 1  0 0 0 0 0 0 0 0 0 0  0 0 0 0 0 0 0 0 0 0  0 0 0 0 0 0 0 0 0 0  1 1 1 1 1 1 1 1 1 1  0 0 0 0 0 0 0 0 0 0  1 1 1 1 1 1 1 1 1 1  0 0 0 0 0 0 0 0 0 0  0 0 0 0 0 0 0 0 0 0  0 0 0 0 0 0 0 0 0 0  0 0 0 0 0 0 0 0 0 0  1 1 1 1 1 1 1 1 1 1  1 1 1 1 1 1 1 1 1 1  0 0 0 0 0 0 0 0 0 0  0 0 0 0 0 0 0 0 0 0  1 1 1 1 1 1 1 1 1 1  0 0 0 0 0 0 0 0 0 0  1 1 1 1 1 1 1 1 1 1  0 0 0 0 0 0 0 0 0 0  0 0 0 0 0 0 0 0 0 0  0 0 0 0 0 0 0 0 0 0  0 0 0 0 0 0 0 0 0 0 
0 0 0 0 0 0 0 0 0 0  1 1 1 1 1 1 1 1 1 1  1 1 1 1 1 1 1 1 1 1  1 1 1 1 1 1 1 1 1 1  1 1 1 1 1 1 1 1 1 1  0 0 0 0 0 0 0 0 0 0  0 0 0 0 0 0 0 0 0 0  1 1 1 1 1 1 1 1 1 1  1 1 1 1 1 1 1 1 1 1  1 1 1 1 1 1 1 1 1 1  0 0 0 0 0 0 0 0 0 0  0 0 0 0 0 0 0 0 0 0  1 1 1 1 1 1 1 1 1 1  0 0 0 0 0 0 0 0 0 0  1 1 1 1 1 1 1 1 1 1  0 0 0 0 0 0 0 0 0 0  1 1 1 1 1 1 1 1 1 1  0 0 0 0 0 0 0 0 0 0  1 1 1 1 1 1 1 1 1 1  1 1 1 1 1 1 1 1 1 1  1 1 1 1 1 1 1 1 1 1  0 0 0 0 0 0 0 0 0 0  0 0 0 0 0 0 0 0 0 0 
0 0 0 0 0 0 0 0 0 0  1 1 1 1 1 1 1 1 1 1  1 1 1 1 1 1 1 1 1 1  1 1 1 1 1 1 1 1 1 1  1 1 1 1 1 1 1 1 1 1  0 0 0 0 0 0 0 0 0 0  0 0 0 0 0 0 0 0 0 0  1 1 1 1 1 1 1 1 1 1  1 1 1 1 1 1 1 1 1 1  1 1 1 1 1 1 1 1 1 1  0 0 0 0 0 0 0 0 0 0  0 0 0 0 0 0 0 0 0 0  1 1 1 1 1 1 1 1 1 1  0 0 0 0 0 0 0 0 0 0  1 1 1 1 1 1 1 1 1 1  0 0 0 0 0 0 0 0 0 0  1 1 1 1 1 1 1 1 1 1  0 0 0 0 0 0 0 0 0 0  1 1 1 1 1 1 1 1 1 1  1 1 1 1 1 1 1 1 1 1  1 1 1 1 1 1 1 1 1 1  0 0 0 0 0 0 0 0 0 0  0 0 0 0 0 0 0 0 0 0 
0 0 0 0 0 0 0 0 0 0  1 1 1 1 1 1 1 1 1 1  1 1 1 1 1 1 1 1 1 1  1 1 1 1 1 1 1 1 1 1  1 1 1 1 1 1 1 1 1 1  0 0 0 0 0 0 0 0 0 0  0 0 0 0 0 0 0 0 0 0  1 1 1 1 1 1 1 1 1 1  1 1 1 1 1 1 1 1 1 1  1 1 1 1 1 1 1 1 1 1  0 0 0 0 0 0 0 0 0 0  0 0 0 0 0 0 0 0 0 0  1 1 1 1 1 1 1 1 1 1  0 0 0 0 0 0 0 0 0 0  1 1 1 1 1 1 1 1 1 1  0 0 0 0 0 0 0 0 0 0  1 1 1 1 1 1 1 1 1 1  0 0 0 0 0 0 0 0 0 0  1 1 1 1 1 1 1 1 1 1  1 1 1 1 1 1 1 1 1 1  1 1 1 1 1 1 1 1 1 1  0 0 0 0 0 0 0 0 0 0  0 0 0 0 0 0 0 0 0 0 
0 0 0 0 0 0 0 0 0 0  1 1 1 1 1 1 1 1 1 1  1 1 1 1 1 1 1 1 1 1  1 1 1 1 1 1 1 1 1 1  1 1 1 1 1 1 1 1 1 1  0 0 0 0 0 0 0 0 0 0  0 0 0 0 0 0 0 0 0 0  1 1 1 1 1 1 1 1 1 1  1 1 1 1 1 1 1 1 1 1  1 1 1 1 1 1 1 1 1 1  0 0 0 0 0 0 0 0 0 0  0 0 0 0 0 0 0 0 0 0  1 1 1 1 1 1 1 1 1 1  0 0 0 0 0 0 0 0 0 0  1 1 1 1 1 1 1 1 1 1  0 0 0 0 0 0 0 0 0 0  1 1 1 1 1 1 1 1 1 1  0 0 0 0 0 0 0 0 0 0  1 1 1 1 1 1 1 1 1 1  1 1 1 1 1 1 1 1 1 1  1 1 1 1 1 1 1 1 1 1  0 0 0 0 0 0 0 0 0 0  0 0 0 0 0 0 0 0 0 0 
0 0 0 0 0 0 0 0 0 0  1 1 1 1 1 1 1 1 1 1  1 1 1 1 1 1 1 1 1 1  1 1 1 1 1 1 1 1 1 1  1 1 1 1 1 1 1 1 1 1  0 0 0 0 0 0 0 0 0 0  0 0 0 0 0 0 0 0 0 0  1 1 1 1 1 1 1 1 1 1  1 1 1 1 1 1 1 1 1 1  1 1 1 1 1 1 1 1 1 1  0 0 0 0 0 0 0 0 0 0  0 0 0 0 0 0 0 0 0 0  1 1 1 1 1 1 1 1 1 1  0 0 0 0 0 0 0 0 0 0  1 1 1 1 1 1 1 1 1 1  0 0 0 0 0 0 0 0 0 0  1 1 1 1 1 1 1 1 1 1  0 0 0 0 0 0 0 0 0 0  1 1 1 1 1 1 1 1 1 1  1 1 1 1 1 1 1 1 1 1  1 1 1 1 1 1 1 1 1 1  0 0 0 0 0 0 0 0 0 0  0 0 0 0 0 0 0 0 0 0 
0 0 0 0 0 0 0 0 0 0  1 1 1 1 1 1 1 1 1 1  1 1 1 1 1 1 1 1 1 1  1 1 1 1 1 1 1 1 1 1  1 1 1 1 1 1 1 1 1 1  0 0 0 0 0 0 0 0 0 0  0 0 0 0 0 0 0 0 0 0  1 1 1 1 1 1 1 1 1 1  1 1 1 1 1 1 1 1 1 1  1 1 1 1 1 1 1 1 1 1  0 0 0 0 0 0 0 0 0 0  0 0 0 0 0 0 0 0 0 0  1 1 1 1 1 1 1 1 1 1  0 0 0 0 0 0 0 0 0 0  1 1 1 1 1 1 1 1 1 1  0 0 0 0 0 0 0 0 0 0  1 1 1 1 1 1 1 1 1 1  0 0 0 0 0 0 0 0 0 0  1 1 1 1 1 1 1 1 1 1  1 1 1 1 1 1 1 1 1 1  1 1 1 1 1 1 1 1 1 1  0 0 0 0 0 0 0 0 0 0  0 0 0 0 0 0 0 0 0 0 
0 0 0 0 0 0 0 0 0 0  1 1 1 1 1 1 1 1 1 1  1 1 1 1 1 1 1 1 1 1  1 1 1 1 1 1 1 1 1 1  1 1 1 1 1 1 1 1 1 1  0 0 0 0 0 0 0 0 0 0  0 0 0 0 0 0 0 0 0 0  1 1 1 1 1 1 1 1 1 1  1 1 1 1 1 1 1 1 1 1  1 1 1 1 1 1 1 1 1 1  0 0 0 0 0 0 0 0 0 0  0 0 0 0 0 0 0 0 0 0  1 1 1 1 1 1 1 1 1 1  0 0 0 0 0 0 0 0 0 0  1 1 1 1 1 1 1 1 1 1  0 0 0 0 0 0 0 0 0 0  1 1 1 1 1 1 1 1 1 1  0 0 0 0 0 0 0 0 0 0  1 1 1 1 1 1 1 1 1 1  1 1 1 1 1 1 1 1 1 1  1 1 1 1 1 1 1 1 1 1  0 0 0 0 0 0 0 0 0 0  0 0 0 0 0 0 0 0 0 0 
0 0 0 0 0 0 0 0 0 0  1 1 1 1 1 1 1 1 1 1  1 1 1 1 1 1 1 1 1 1  1 1 1 1 1 1 1 1 1 1  1 1 1 1 1 1 1 1 1 1  0 0 0 0 0 0 0 0 0 0  0 0 0 0 0 0 0 0 0 0  1 1 1 1 1 1 1 1 1 1  1 1 1 1 1 1 1 1 1 1  1 1 1 1 1 1 1 1 1 1  0 0 0 0 0 0 0 0 0 0  0 0 0 0 0 0 0 0 0 0  1 1 1 1 1 1 1 1 1 1  0 0 0 0 0 0 0 0 0 0  1 1 1 1 1 1 1 1 1 1  0 0 0 0 0 0 0 0 0 0  1 1 1 1 1 1 1 1 1 1  0 0 0 0 0 0 0 0 0 0  1 1 1 1 1 1 1 1 1 1  1 1 1 1 1 1 1 1 1 1  1 1 1 1 1 1 1 1 1 1  0 0 0 0 0 0 0 0 0 0  0 0 0 0 0 0 0 0 0 0 
0 0 0 0 0 0 0 0 0 0  1 1 1 1 1 1 1 1 1 1  1 1 1 1 1 1 1 1 1 1  1 1 1 1 1 1 1 1 1 1  1 1 1 1 1 1 1 1 1 1  0 0 0 0 0 0 0 0 0 0  0 0 0 0 0 0 0 0 0 0  1 1 1 1 1 1 1 1 1 1  1 1 1 1 1 1 1 1 1 1  1 1 1 1 1 1 1 1 1 1  0 0 0 0 0 0 0 0 0 0  0 0 0 0 0 0 0 0 0 0  1 1 1 1 1 1 1 1 1 1  0 0 0 0 0 0 0 0 0 0  1 1 1 1 1 1 1 1 1 1  0 0 0 0 0 0 0 0 0 0  1 1 1 1 1 1 1 1 1 1  0 0 0 0 0 0 0 0 0 0  1 1 1 1 1 1 1 1 1 1  1 1 1 1 1 1 1 1 1 1  1 1 1 1 1 1 1 1 1 1  0 0 0 0 0 0 0 0 0 0  0 0 0 0 0 0 0 0 0 0 
0 0 0 0 0 0 0 0 0 0  1 1 1 1 1 1 1 1 1 1  1 1 1 1 1 1 1 1 1 1  1 1 1 1 1 1 1 1 1 1  1 1 1 1 1 1 1 1 1 1  0 0 0 0 0 0 0 0 0 0  0 0 0 0 0 0 0 0 0 0  1 1 1 1 1 1 1 1 1 1  1 1 1 1 1 1 1 1 1 1  1 1 1 1 1 1 1 1 1 1  0 0 0 0 0 0 0 0 0 0  0 0 0 0 0 0 0 0 0 0  1 1 1 1 1 1 1 1 1 1  0 0 0 0 0 0 0 0 0 0  1 1 1 1 1 1 1 1 1 1  0 0 0 0 0 0 0 0 0 0  1 1 1 1 1 1 1 1 1 1  0 0 0 0 0 0 0 0 0 0  1 1 1 1 1 1 1 1 1 1  1 1 1 1 1 1 1 1 1 1  1 1 1 1 1 1 1 1 1 1  0 0 0 0 0 0 0 0 0 0  0 0 0 0 0 0 0 0 0 0 
0 0 0 0 0 0 0 0 0 0  1 1 1 1 1 1 1 1 1 1  0 0 0 0 0 0 0 0 0 0  1 1 1 1 1 1 1 1 1 1  0 0 0 0 0 0 0 0 0 0  0 0 0 0 0 0 0 0 0 0  0 0 0 0 0 0 0 0 0 0  1 1 1 1 1 1 1 1 1 1  0 0 0 0 0 0 0 0 0 0  0 0 0 0 0 0 0 0 0 0  0 0 0 0 0 0 0 0 0 0  0 0 0 0 0 0 0 0 0 0  1 1 1 1 1 1 1 1 1 1  0 0 0 0 0 0 0 0 0 0  0 0 0 0 0 0 0 0 0 0  1 1 1 1 1 1 1 1 1 1  1 1 1 1 1 1 1 1 1 1  0 0 0 0 0 0 0 0 0 0  1 1 1 1 1 1 1 1 1 1  0 0 0 0 0 0 0 0 0 0  0 0 0 0 0 0 0 0 0 0  0 0 0 0 0 0 0 0 0 0  0 0 0 0 0 0 0 0 0 0 
0 0 0 0 0 0 0 0 0 0  1 1 1 1 1 1 1 1 1 1  0 0 0 0 0 0 0 0 0 0  1 1 1 1 1 1 1 1 1 1  0 0 0 0 0 0 0 0 0 0  0 0 0 0 0 0 0 0 0 0  0 0 0 0 0 0 0 0 0 0  1 1 1 1 1 1 1 1 1 1  0 0 0 0 0 0 0 0 0 0  0 0 0 0 0 0 0 0 0 0  0 0 0 0 0 0 0 0 0 0  0 0 0 0 0 0 0 0 0 0  1 1 1 1 1 1 1 1 1 1  0 0 0 0 0 0 0 0 0 0  0 0 0 0 0 0 0 0 0 0  1 1 1 1 1 1 1 1 1 1  1 1 1 1 1 1 1 1 1 1  0 0 0 0 0 0 0 0 0 0  1 1 1 1 1 1 1 1 1 1  0 0 0 0 0 0 0 0 0 0  0 0 0 0 0 0 0 0 0 0  0 0 0 0 0 0 0 0 0 0  0 0 0 0 0 0 0 0 0 0 
0 0 0 0 0 0 0 0 0 0  1 1 1 1 1 1 1 1 1 1  0 0 0 0 0 0 0 0 0 0  1 1 1 1 1 1 1 1 1 1  0 0 0 0 0 0 0 0 0 0  0 0 0 0 0 0 0 0 0 0  0 0 0 0 0 0 0 0 0 0  1 1 1 1 1 1 1 1 1 1  0 0 0 0 0 0 0 0 0 0  0 0 0 0 0 0 0 0 0 0  0 0 0 0 0 0 0 0 0 0  0 0 0 0 0 0 0 0 0 0  1 1 1 1 1 1 1 1 1 1  0 0 0 0 0 0 0 0 0 0  0 0 0 0 0 0 0 0 0 0  1 1 1 1 1 1 1 1 1 1  1 1 1 1 1 1 1 1 1 1  0 0 0 0 0 0 0 0 0 0  1 1 1 1 1 1 1 1 1 1  0 0 0 0 0 0 0 0 0 0  0 0 0 0 0 0 0 0 0 0  0 0 0 0 0 0 0 0 0 0  0 0 0 0 0 0 0 0 0 0 
0 0 0 0 0 0 0 0 0 0  1 1 1 1 1 1 1 1 1 1  0 0 0 0 0 0 0 0 0 0  1 1 1 1 1 1 1 1 1 1  0 0 0 0 0 0 0 0 0 0  0 0 0 0 0 0 0 0 0 0  0 0 0 0 0 0 0 0 0 0  1 1 1 1 1 1 1 1 1 1  0 0 0 0 0 0 0 0 0 0  0 0 0 0 0 0 0 0 0 0  0 0 0 0 0 0 0 0 0 0  0 0 0 0 0 0 0 0 0 0  1 1 1 1 1 1 1 1 1 1  0 0 0 0 0 0 0 0 0 0  0 0 0 0 0 0 0 0 0 0  1 1 1 1 1 1 1 1 1 1  1 1 1 1 1 1 1 1 1 1  0 0 0 0 0 0 0 0 0 0  1 1 1 1 1 1 1 1 1 1  0 0 0 0 0 0 0 0 0 0  0 0 0 0 0 0 0 0 0 0  0 0 0 0 0 0 0 0 0 0  0 0 0 0 0 0 0 0 0 0 
0 0 0 0 0 0 0 0 0 0  1 1 1 1 1 1 1 1 1 1  0 0 0 0 0 0 0 0 0 0  1 1 1 1 1 1 1 1 1 1  0 0 0 0 0 0 0 0 0 0  0 0 0 0 0 0 0 0 0 0  0 0 0 0 0 0 0 0 0 0  1 1 1 1 1 1 1 1 1 1  0 0 0 0 0 0 0 0 0 0  0 0 0 0 0 0 0 0 0 0  0 0 0 0 0 0 0 0 0 0  0 0 0 0 0 0 0 0 0 0  1 1 1 1 1 1 1 1 1 1  0 0 0 0 0 0 0 0 0 0  0 0 0 0 0 0 0 0 0 0  1 1 1 1 1 1 1 1 1 1  1 1 1 1 1 1 1 1 1 1  0 0 0 0 0 0 0 0 0 0  1 1 1 1 1 1 1 1 1 1  0 0 0 0 0 0 0 0 0 0  0 0 0 0 0 0 0 0 0 0  0 0 0 0 0 0 0 0 0 0  0 0 0 0 0 0 0 0 0 0 
0 0 0 0 0 0 0 0 0 0  1 1 1 1 1 1 1 1 1 1  0 0 0 0 0 0 0 0 0 0  1 1 1 1 1 1 1 1 1 1  0 0 0 0 0 0 0 0 0 0  0 0 0 0 0 0 0 0 0 0  0 0 0 0 0 0 0 0 0 0  1 1 1 1 1 1 1 1 1 1  0 0 0 0 0 0 0 0 0 0  0 0 0 0 0 0 0 0 0 0  0 0 0 0 0 0 0 0 0 0  0 0 0 0 0 0 0 0 0 0  1 1 1 1 1 1 1 1 1 1  0 0 0 0 0 0 0 0 0 0  0 0 0 0 0 0 0 0 0 0  1 1 1 1 1 1 1 1 1 1  1 1 1 1 1 1 1 1 1 1  0 0 0 0 0 0 0 0 0 0  1 1 1 1 1 1 1 1 1 1  0 0 0 0 0 0 0 0 0 0  0 0 0 0 0 0 0 0 0 0  0 0 0 0 0 0 0 0 0 0  0 0 0 0 0 0 0 0 0 0 
0 0 0 0 0 0 0 0 0 0  1 1 1 1 1 1 1 1 1 1  0 0 0 0 0 0 0 0 0 0  1 1 1 1 1 1 1 1 1 1  0 0 0 0 0 0 0 0 0 0  0 0 0 0 0 0 0 0 0 0  0 0 0 0 0 0 0 0 0 0  1 1 1 1 1 1 1 1 1 1  0 0 0 0 0 0 0 0 0 0  0 0 0 0 0 0 0 0 0 0  0 0 0 0 0 0 0 0 0 0  0 0 0 0 0 0 0 0 0 0  1 1 1 1 1 1 1 1 1 1  0 0 0 0 0 0 0 0 0 0  0 0 0 0 0 0 0 0 0 0  1 1 1 1 1 1 1 1 1 1  1 1 1 1 1 1 1 1 1 1  0 0 0 0 0 0 0 0 0 0  1 1 1 1 1 1 1 1 1 1  0 0 0 0 0 0 0 0 0 0  0 0 0 0 0 0 0 0 0 0  0 0 0 0 0 0 0 0 0 0  0 0 0 0 0 0 0 0 0 0 
0 0 0 0 0 0 0 0 0 0  1 1 1 1 1 1 1 1 1 1  0 0 0 0 0 0 0 0 0 0  1 1 1 1 1 1 1 1 1 1  0 0 0 0 0 0 0 0 0 0  0 0 0 0 0 0 0 0 0 0  0 0 0 0 0 0 0 0 0 0  1 1 1 1 1 1 1 1 1 1  0 0 0 0 0 0 0 0 0 0  0 0 0 0 0 0 0 0 0 0  0 0 0 0 0 0 0 0 0 0  0 0 0 0 0 0 0 0 0 0  1 1 1 1 1 1 1 1 1 1  0 0 0 0 0 0 0 0 0 0  0 0 0 0 0 0 0 0 0 0  1 1 1 1 1 1 1 1 1 1  1 1 1 1 1 1 1 1 1 1  0 0 0 0 0 0 0 0 0 0  1 1 1 1 1 1 1 1 1 1  0 0 0 0 0 0 0 0 0 0  0 0 0 0 0 0 0 0 0 0  0 0 0 0 0 0 0 0 0 0  0 0 0 0 0 0 0 0 0 0 
0 0 0 0 0 0 0 0 0 0  1 1 1 1 1 1 1 1 1 1  0 0 0 0 0 0 0 0 0 0  1 1 1 1 1 1 1 1 1 1  0 0 0 0 0 0 0 0 0 0  0 0 0 0 0 0 0 0 0 0  0 0 0 0 0 0 0 0 0 0  1 1 1 1 1 1 1 1 1 1  0 0 0 0 0 0 0 0 0 0  0 0 0 0 0 0 0 0 0 0  0 0 0 0 0 0 0 0 0 0  0 0 0 0 0 0 0 0 0 0  1 1 1 1 1 1 1 1 1 1  0 0 0 0 0 0 0 0 0 0  0 0 0 0 0 0 0 0 0 0  1 1 1 1 1 1 1 1 1 1  1 1 1 1 1 1 1 1 1 1  0 0 0 0 0 0 0 0 0 0  1 1 1 1 1 1 1 1 1 1  0 0 0 0 0 0 0 0 0 0  0 0 0 0 0 0 0 0 0 0  0 0 0 0 0 0 0 0 0 0  0 0 0 0 0 0 0 0 0 0 
0 0 0 0 0 0 0 0 0 0  1 1 1 1 1 1 1 1 1 1  0 0 0 0 0 0 0 0 0 0  1 1 1 1 1 1 1 1 1 1  0 0 0 0 0 0 0 0 0 0  0 0 0 0 0 0 0 0 0 0  0 0 0 0 0 0 0 0 0 0  1 1 1 1 1 1 1 1 1 1  0 0 0 0 0 0 0 0 0 0  0 0 0 0 0 0 0 0 0 0  0 0 0 0 0 0 0 0 0 0  0 0 0 0 0 0 0 0 0 0  1 1 1 1 1 1 1 1 1 1  0 0 0 0 0 0 0 0 0 0  0 0 0 0 0 0 0 0 0 0  1 1 1 1 1 1 1 1 1 1  1 1 1 1 1 1 1 1 1 1  0 0 0 0 0 0 0 0 0 0  1 1 1 1 1 1 1 1 1 1  0 0 0 0 0 0 0 0 0 0  0 0 0 0 0 0 0 0 0 0  0 0 0 0 0 0 0 0 0 0  0 0 0 0 0 0 0 0 0 0 
0 0 0 0 0 0 0 0 0 0  1 1 1 1 1 1 1 1 1 1  0 0 0 0 0 0 0 0 0 0  0 0 0 0 0 0 0 0 0 0  1 1 1 1 1 1 1 1 1 1  1 1 1 1 1 1 1 1 1 1  0 0 0 0 0 0 0 0 0 0  1 1 1 1 1 1 1 1 1 1  1 1 1 1 1 1 1 1 1 1  1 1 1 1 1 1 1 1 1 1  1 1 1 1 1 1 1 1 1 1  0 0 0 0 0 0 0 0 0 0  1 1 1 1 1 1 1 1 1 1  0 0 0 0 0 0 0 0 0 0  0 0 0 0 0 0 0 0 0 0  0 0 0 0 0 0 0 0 0 0  1 1 1 1 1 1 1 1 1 1  0 0 0 0 0 0 0 0 0 0  1 1 1 1 1 1 1 1 1 1  1 1 1 1 1 1 1 1 1 1  1 1 1 1 1 1 1 1 1 1  1 1 1 1 1 1 1 1 1 1  0 0 0 0 0 0 0 0 0 0 
0 0 0 0 0 0 0 0 0 0  1 1 1 1 1 1 1 1 1 1  0 0 0 0 0 0 0 0 0 0  0 0 0 0 0 0 0 0 0 0  1 1 1 1 1 1 1 1 1 1  1 1 1 1 1 1 1 1 1 1  0 0 0 0 0 0 0 0 0 0  1 1 1 1 1 1 1 1 1 1  1 1 1 1 1 1 1 1 1 1  1 1 1 1 1 1 1 1 1 1  1 1 1 1 1 1 1 1 1 1  0 0 0 0 0 0 0 0 0 0  1 1 1 1 1 1 1 1 1 1  0 0 0 0 0 0 0 0 0 0  0 0 0 0 0 0 0 0 0 0  0 0 0 0 0 0 0 0 0 0  1 1 1 1 1 1 1 1 1 1  0 0 0 0 0 0 0 0 0 0  1 1 1 1 1 1 1 1 1 1  1 1 1 1 1 1 1 1 1 1  1 1 1 1 1 1 1 1 1 1  1 1 1 1 1 1 1 1 1 1  0 0 0 0 0 0 0 0 0 0 
0 0 0 0 0 0 0 0 0 0  1 1 1 1 1 1 1 1 1 1  0 0 0 0 0 0 0 0 0 0  0 0 0 0 0 0 0 0 0 0  1 1 1 1 1 1 1 1 1 1  1 1 1 1 1 1 1 1 1 1  0 0 0 0 0 0 0 0 0 0  1 1 1 1 1 1 1 1 1 1  1 1 1 1 1 1 1 1 1 1  1 1 1 1 1 1 1 1 1 1  1 1 1 1 1 1 1 1 1 1  0 0 0 0 0 0 0 0 0 0  1 1 1 1 1 1 1 1 1 1  0 0 0 0 0 0 0 0 0 0  0 0 0 0 0 0 0 0 0 0  0 0 0 0 0 0 0 0 0 0  1 1 1 1 1 1 1 1 1 1  0 0 0 0 0 0 0 0 0 0  1 1 1 1 1 1 1 1 1 1  1 1 1 1 1 1 1 1 1 1  1 1 1 1 1 1 1 1 1 1  1 1 1 1 1 1 1 1 1 1  0 0 0 0 0 0 0 0 0 0 
0 0 0 0 0 0 0 0 0 0  1 1 1 1 1 1 1 1 1 1  0 0 0 0 0 0 0 0 0 0  0 0 0 0 0 0 0 0 0 0  1 1 1 1 1 1 1 1 1 1  1 1 1 1 1 1 1 1 1 1  0 0 0 0 0 0 0 0 0 0  1 1 1 1 1 1 1 1 1 1  1 1 1 1 1 1 1 1 1 1  1 1 1 1 1 1 1 1 1 1  1 1 1 1 1 1 1 1 1 1  0 0 0 0 0 0 0 0 0 0  1 1 1 1 1 1 1 1 1 1  0 0 0 0 0 0 0 0 0 0  0 0 0 0 0 0 0 0 0 0  0 0 0 0 0 0 0 0 0 0  1 1 1 1 1 1 1 1 1 1  0 0 0 0 0 0 0 0 0 0  1 1 1 1 1 1 1 1 1 1  1 1 1 1 1 1 1 1 1 1  1 1 1 1 1 1 1 1 1 1  1 1 1 1 1 1 1 1 1 1  0 0 0 0 0 0 0 0 0 0 
0 0 0 0 0 0 0 0 0 0  1 1 1 1 1 1 1 1 1 1  0 0 0 0 0 0 0 0 0 0  0 0 0 0 0 0 0 0 0 0  1 1 1 1 1 1 1 1 1 1  1 1 1 1 1 1 1 1 1 1  0 0 0 0 0 0 0 0 0 0  1 1 1 1 1 1 1 1 1 1  1 1 1 1 1 1 1 1 1 1  1 1 1 1 1 1 1 1 1 1  1 1 1 1 1 1 1 1 1 1  0 0 0 0 0 0 0 0 0 0  1 1 1 1 1 1 1 1 1 1  0 0 0 0 0 0 0 0 0 0  0 0 0 0 0 0 0 0 0 0  0 0 0 0 0 0 0 0 0 0  1 1 1 1 1 1 1 1 1 1  0 0 0 0 0 0 0 0 0 0  1 1 1 1 1 1 1 1 1 1  1 1 1 1 1 1 1 1 1 1  1 1 1 1 1 1 1 1 1 1  1 1 1 1 1 1 1 1 1 1  0 0 0 0 0 0 0 0 0 0 
0 0 0 0 0 0 0 0 0 0  1 1 1 1 1 1 1 1 1 1  0 0 0 0 0 0 0 0 0 0  0 0 0 0 0 0 0 0 0 0  1 1 1 1 1 1 1 1 1 1  1 1 1 1 1 1 1 1 1 1  0 0 0 0 0 0 0 0 0 0  1 1 1 1 1 1 1 1 1 1  1 1 1 1 1 1 1 1 1 1  1 1 1 1 1 1 1 1 1 1  1 1 1 1 1 1 1 1 1 1  0 0 0 0 0 0 0 0 0 0  1 1 1 1 1 1 1 1 1 1  0 0 0 0 0 0 0 0 0 0  0 0 0 0 0 0 0 0 0 0  0 0 0 0 0 0 0 0 0 0  1 1 1 1 1 1 1 1 1 1  0 0 0 0 0 0 0 0 0 0  1 1 1 1 1 1 1 1 1 1  1 1 1 1 1 1 1 1 1 1  1 1 1 1 1 1 1 1 1 1  1 1 1 1 1 1 1 1 1 1  0 0 0 0 0 0 0 0 0 0 
0 0 0 0 0 0 0 0 0 0  1 1 1 1 1 1 1 1 1 1  0 0 0 0 0 0 0 0 0 0  0 0 0 0 0 0 0 0 0 0  1 1 1 1 1 1 1 1 1 1  1 1 1 1 1 1 1 1 1 1  0 0 0 0 0 0 0 0 0 0  1 1 1 1 1 1 1 1 1 1  1 1 1 1 1 1 1 1 1 1  1 1 1 1 1 1 1 1 1 1  1 1 1 1 1 1 1 1 1 1  0 0 0 0 0 0 0 0 0 0  1 1 1 1 1 1 1 1 1 1  0 0 0 0 0 0 0 0 0 0  0 0 0 0 0 0 0 0 0 0  0 0 0 0 0 0 0 0 0 0  1 1 1 1 1 1 1 1 1 1  0 0 0 0 0 0 0 0 0 0  1 1 1 1 1 1 1 1 1 1  1 1 1 1 1 1 1 1 1 1  1 1 1 1 1 1 1 1 1 1  1 1 1 1 1 1 1 1 1 1  0 0 0 0 0 0 0 0 0 0 
0 0 0 0 0 0 0 0 0 0  1 1 1 1 1 1 1 1 1 1  0 0 0 0 0 0 0 0 0 0  0 0 0 0 0 0 0 0 0 0  1 1 1 1 1 1 1 1 1 1  1 1 1 1 1 1 1 1 1 1  0 0 0 0 0 0 0 0 0 0  1 1 1 1 1 1 1 1 1 1  1 1 1 1 1 1 1 1 1 1  1 1 1 1 1 1 1 1 1 1  1 1 1 1 1 1 1 1 1 1  0 0 0 0 0 0 0 0 0 0  1 1 1 1 1 1 1 1 1 1  0 0 0 0 0 0 0 0 0 0  0 0 0 0 0 0 0 0 0 0  0 0 0 0 0 0 0 0 0 0  1 1 1 1 1 1 1 1 1 1  0 0 0 0 0 0 0 0 0 0  1 1 1 1 1 1 1 1 1 1  1 1 1 1 1 1 1 1 1 1  1 1 1 1 1 1 1 1 1 1  1 1 1 1 1 1 1 1 1 1  0 0 0 0 0 0 0 0 0 0 
0 0 0 0 0 0 0 0 0 0  1 1 1 1 1 1 1 1 1 1  0 0 0 0 0 0 0 0 0 0  0 0 0 0 0 0 0 0 0 0  1 1 1 1 1 1 1 1 1 1  1 1 1 1 1 1 1 1 1 1  0 0 0 0 0 0 0 0 0 0  1 1 1 1 1 1 1 1 1 1  1 1 1 1 1 1 1 1 1 1  1 1 1 1 1 1 1 1 1 1  1 1 1 1 1 1 1 1 1 1  0 0 0 0 0 0 0 0 0 0  1 1 1 1 1 1 1 1 1 1  0 0 0 0 0 0 0 0 0 0  0 0 0 0 0 0 0 0 0 0  0 0 0 0 0 0 0 0 0 0  1 1 1 1 1 1 1 1 1 1  0 0 0 0 0 0 0 0 0 0  1 1 1 1 1 1 1 1 1 1  1 1 1 1 1 1 1 1 1 1  1 1 1 1 1 1 1 1 1 1  1 1 1 1 1 1 1 1 1 1  0 0 0 0 0 0 0 0 0 0 
0 0 0 0 0 0 0 0 0 0  1 1 1 1 1 1 1 1 1 1  0 0 0 0 0 0 0 0 0 0  0 0 0 0 0 0 0 0 0 0  1 1 1 1 1 1 1 1 1 1  1 1 1 1 1 1 1 1 1 1  0 0 0 0 0 0 0 0 0 0  1 1 1 1 1 1 1 1 1 1  1 1 1 1 1 1 1 1 1 1  1 1 1 1 1 1 1 1 1 1  1 1 1 1 1 1 1 1 1 1  0 0 0 0 0 0 0 0 0 0  1 1 1 1 1 1 1 1 1 1  0 0 0 0 0 0 0 0 0 0  0 0 0 0 0 0 0 0 0 0  0 0 0 0 0 0 0 0 0 0  1 1 1 1 1 1 1 1 1 1  0 0 0 0 0 0 0 0 0 0  1 1 1 1 1 1 1 1 1 1  1 1 1 1 1 1 1 1 1 1  1 1 1 1 1 1 1 1 1 1  1 1 1 1 1 1 1 1 1 1  0 0 0 0 0 0 0 0 0 0 
0 0 0 0 0 0 0 0 0 0  0 0 0 0 0 0 0 0 0 0  0 0 0 0 0 0 0 0 0 0  0 0 0 0 0 0 0 0 0 0  0 0 0 0 0 0 0 0 0 0  0 0 0 0 0 0 0 0 0 0  0 0 0 0 0 0 0 0 0 0  0 0 0 0 0 0 0 0 0 0  0 0 0 0 0 0 0 0 0 0  0 0 0 0 0 0 0 0 0 0  0 0 0 0 0 0 0 0 0 0  0 0 0 0 0 0 0 0 0 0  0 0 0 0 0 0 0 0 0 0  0 0 0 0 0 0 0 0 0 0  0 0 0 0 0 0 0 0 0 0  0 0 0 0 0 0 0 0 0 0  0 0 0 0 0 0 0 0 0 0  0 0 0 0 0 0 0 0 0 0  0 0 0 0 0 0 0 0 0 0  0 0 0 0 0 0 0 0 0 0  0 0 0 0 0 0 0 0 0 0  0 0 0 0 0 0 0 0 0 0  0 0 0 0 0 0 0 0 0 0 
0 0 0 0 0 0 0 0 0 0  0 0 0 0 0 0 0 0 0 0  0 0 0 0 0 0 0 0 0 0  0 0 0 0 0 0 0 0 0 0  0 0 0 0 0 0 0 0 0 0  0 0 0 0 0 0 0 0 0 0  0 0 0 0 0 0 0 0 0 0  0 0 0 0 0 0 0 0 0 0  0 0 0 0 0 0 0 0 0 0  0 0 0 0 0 0 0 0 0 0  0 0 0 0 0 0 0 0 0 0  0 0 0 0 0 0 0 0 0 0  0 0 0 0 0 0 0 0 0 0  0 0 0 0 0 0 0 0 0 0  0 0 0 0 0 0 0 0 0 0  0 0 0 0 0 0 0 0 0 0  0 0 0 0 0 0 0 0 0 0  0 0 0 0 0 0 0 0 0 0  0 0 0 0 0 0 0 0 0 0  0 0 0 0 0 0 0 0 0 0  0 0 0 0 0 0 0 0 0 0  0 0 0 0 0 0 0 0 0 0  0 0 0 0 0 0 0 0 0 0 
0 0 0 0 0 0 0 0 0 0  0 0 0 0 0 0 0 0 0 0  0 0 0 0 0 0 0 0 0 0  0 0 0 0 0 0 0 0 0 0  0 0 0 0 0 0 0 0 0 0  0 0 0 0 0 0 0 0 0 0  0 0 0 0 0 0 0 0 0 0  0 0 0 0 0 0 0 0 0 0  0 0 0 0 0 0 0 0 0 0  0 0 0 0 0 0 0 0 0 0  0 0 0 0 0 0 0 0 0 0  0 0 0 0 0 0 0 0 0 0  0 0 0 0 0 0 0 0 0 0  0 0 0 0 0 0 0 0 0 0  0 0 0 0 0 0 0 0 0 0  0 0 0 0 0 0 0 0 0 0  0 0 0 0 0 0 0 0 0 0  0 0 0 0 0 0 0 0 0 0  0 0 0 0 0 0 0 0 0 0  0 0 0 0 0 0 0 0 0 0  0 0 0 0 0 0 0 0 0 0  0 0 0 0 0 0 0 0 0 0  0 0 0 0 0 0 0 0 0 0 
0 0 0 0 0 0 0 0 0 0  0 0 0 0 0 0 0 0 0 0  0 0 0 0 0 0 0 0 0 0  0 0 0 0 0 0 0 0 0 0  0 0 0 0 0 0 0 0 0 0  0 0 0 0 0 0 0 0 0 0  0 0 0 0 0 0 0 0 0 0  0 0 0 0 0 0 0 0 0 0  0 0 0 0 0 0 0 0 0 0  0 0 0 0 0 0 0 0 0 0  0 0 0 0 0 0 0 0 0 0  0 0 0 0 0 0 0 0 0 0  0 0 0 0 0 0 0 0 0 0  0 0 0 0 0 0 0 0 0 0  0 0 0 0 0 0 0 0 0 0  0 0 0 0 0 0 0 0 0 0  0 0 0 0 0 0 0 0 0 0  0 0 0 0 0 0 0 0 0 0  0 0 0 0 0 0 0 0 0 0  0 0 0 0 0 0 0 0 0 0  0 0 0 0 0 0 0 0 0 0  0 0 0 0 0 0 0 0 0 0  0 0 0 0 0 0 0 0 0 0 
0 0 0 0 0 0 0 0 0 0  0 0 0 0 0 0 0 0 0 0  0 0 0 0 0 0 0 0 0 0  0 0 0 0 0 0 0 0 0 0  0 0 0 0 0 0 0 0 0 0  0 0 0 0 0 0 0 0 0 0  0 0 0 0 0 0 0 0 0 0  0 0 0 0 0 0 0 0 0 0  0 0 0 0 0 0 0 0 0 0  0 0 0 0 0 0 0 0 0 0  0 0 0 0 0 0 0 0 0 0  0 0 0 0 0 0 0 0 0 0  0 0 0 0 0 0 0 0 0 0  0 0 0 0 0 0 0 0 0 0  0 0 0 0 0 0 0 0 0 0  0 0 0 0 0 0 0 0 0 0  0 0 0 0 0 0 0 0 0 0  0 0 0 0 0 0 0 0 0 0  0 0 0 0 0 0 0 0 0 0  0 0 0 0 0 0 0 0 0 0  0 0 0 0 0 0 0 0 0 0  0 0 0 0 0 0 0 0 0 0  0 0 0 0 0 0 0 0 0 0 
0 0 0 0 0 0 0 0 0 0  0 0 0 0 0 0 0 0 0 0  0 0 0 0 0 0 0 0 0 0  0 0 0 0 0 0 0 0 0 0  0 0 0 0 0 0 0 0 0 0  0 0 0 0 0 0 0 0 0 0  0 0 0 0 0 0 0 0 0 0  0 0 0 0 0 0 0 0 0 0  0 0 0 0 0 0 0 0 0 0  0 0 0 0 0 0 0 0 0 0  0 0 0 0 0 0 0 0 0 0  0 0 0 0 0 0 0 0 0 0  0 0 0 0 0 0 0 0 0 0  0 0 0 0 0 0 0 0 0 0  0 0 0 0 0 0 0 0 0 0  0 0 0 0 0 0 0 0 0 0  0 0 0 0 0 0 0 0 0 0  0 0 0 0 0 0 0 0 0 0  0 0 0 0 0 0 0 0 0 0  0 0 0 0 0 0 0 0 0 0  0 0 0 0 0 0 0 0 0 0  0 0 0 0 0 0 0 0 0 0  0 0 0 0 0 0 0 0 0 0 
0 0 0 0 0 0 0 0 0 0  0 0 0 0 0 0 0 0 0 0  0 0 0 0 0 0 0 0 0 0  0 0 0 0 0 0 0 0 0 0  0 0 0 0 0 0 0 0 0 0  0 0 0 0 0 0 0 0 0 0  0 0 0 0 0 0 0 0 0 0  0 0 0 0 0 0 0 0 0 0  0 0 0 0 0 0 0 0 0 0  0 0 0 0 0 0 0 0 0 0  0 0 0 0 0 0 0 0 0 0  0 0 0 0 0 0 0 0 0 0  0 0 0 0 0 0 0 0 0 0  0 0 0 0 0 0 0 0 0 0  0 0 0 0 0 0 0 0 0 0  0 0 0 0 0 0 0 0 0 0  0 0 0 0 0 0 0 0 0 0  0 0 0 0 0 0 0 0 0 0  0 0 0 0 0 0 0 0 0 0  0 0 0 0 0 0 0 0 0 0  0 0 0 0 0 0 0 0 0 0  0 0 0 0 0 0 0 0 0 0  0 0 0 0 0 0 0 0 0 0 
0 0 0 0 0 0 0 0 0 0  0 0 0 0 0 0 0 0 0 0  0 0 0 0 0 0 0 0 0 0  0 0 0 0 0 0 0 0 0 0  0 0 0 0 0 0 0 0 0 0  0 0 0 0 0 0 0 0 0 0  0 0 0 0 0 0 0 0 0 0  0 0 0 0 0 0 0 0 0 0  0 0 0 0 0 0 0 0 0 0  0 0 0 0 0 0 0 0 0 0  0 0 0 0 0 0 0 0 0 0  0 0 0 0 0 0 0 0 0 0  0 0 0 0 0 0 0 0 0 0  0 0 0 0 0 0 0 0 0 0  0 0 0 0 0 0 0 0 0 0  0 0 0 0 0 0 0 0 0 0  0 0 0 0 0 0 0 0 0 0  0 0 0 0 0 0 0 0 0 0  0 0 0 0 0 0 0 0 0 0  0 0 0 0 0 0 0 0 0 0  0 0 0 0 0 0 0 0 0 0  0 0 0 0 0 0 0 0 0 0  0 0 0 0 0 0 0 0 0 0 
0 0 0 0 0 0 0 0 0 0  0 0 0 0 0 0 0 0 0 0  0 0 0 0 0 0 0 0 0 0  0 0 0 0 0 0 0 0 0 0  0 0 0 0 0 0 0 0 0 0  0 0 0 0 0 0 0 0 0 0  0 0 0 0 0 0 0 0 0 0  0 0 0 0 0 0 0 0 0 0  0 0 0 0 0 0 0 0 0 0  0 0 0 0 0 0 0 0 0 0  0 0 0 0 0 0 0 0 0 0  0 0 0 0 0 0 0 0 0 0  0 0 0 0 0 0 0 0 0 0  0 0 0 0 0 0 0 0 0 0  0 0 0 0 0 0 0 0 0 0  0 0 0 0 0 0 0 0 0 0  0 0 0 0 0 0 0 0 0 0  0 0 0 0 0 0 0 0 0 0  0 0 0 0 0 0 0 0 0 0  0 0 0 0 0 0 0 0 0 0  0 0 0 0 0 0 0 0 0 0  0 0 0 0 0 0 0 0 0 0  0 0 0 0 0 0 0 0 0 0 
0 0 0 0 0 0 0 0 0 0  0 0 0 0 0 0 0 0 0 0  0 0 0 0 0 0 0 0 0 0  0 0 0 0 0 0 0 0 0 0  0 0 0 0 0 0 0 0 0 0  0 0 0 0 0 0 0 0 0 0  0 0 0 0 0 0 0 0 0 0  0 0 0 0 0 0 0 0 0 0  0 0 0 0 0 0 0 0 0 0  0 0 0 0 0 0 0 0 0 0  0 0 0 0 0 0 0 0 0 0  0 0 0 0 0 0 0 0 0 0  0 0 0 0 0 0 0 0 0 0  0 0 0 0 0 0 0 0 0 0  0 0 0 0 0 0 0 0 0 0  0 0 0 0 0 0 0 0 0 0  0 0 0 0 0 0 0 0 0 0  0 0 0 0 0 0 0 0 0 0  0 0 0 0 0 0 0 0 0 0  0 0 0 0 0 0 0 0 0 0  0 0 0 0 0 0 0 0 0 0  0 0 0 0 0 0 0 0 0 0  0 0 0 0 0 0 0 0 0 0 
